<!DOCTYPE svg PUBLIC "-//W3C//DTD SVG 1.1//EN" "http://www.w3.org/Graphics/SVG/1.1/DTD/svg11.dtd">
<!-- Uploaded to: SVG Repo, www.svgrepo.com, Transformed by: SVG Repo Mixer Tools -->
<svg viewBox="0 0 48 48" version="1.1" id="svg8" xml:space="preserve" xmlns="http://www.w3.org/2000/svg" xmlns:svg="http://www.w3.org/2000/svg" width="800px" height="800px" fill="#fde9ee">
<g id="SVGRepo_bgCarrier" stroke-width="0"/>
<g id="SVGRepo_tracerCarrier" stroke-linecap="round" stroke-linejoin="round"/>
<g id="SVGRepo_iconCarrier">
<defs id="defs4">
<style id="style2">.a{fill:none;stroke:#ef8bc5;stroke-linecap:round;stroke-linejoin:round;}</style>
<style id="style822">.cls-1{fill:none;stroke:#ef8bc5;stroke-linecap:round;stroke-linejoin:round;}</style>
<style id="style913">.cls-1{fill:none;stroke:#ef8bc5;stroke-linecap:round;stroke-linejoin:round;}</style>
</defs>
<path class="a" d="m 40.5,5.5 h -33 a 2,2 0 0 0 -2,2 v 33 a 2,2 0 0 0 2,2 h 33 a 2,2 0 0 0 2,-2 v -33 a 2,2 0 0 0 -2,-2 z" id="path6" style="display:inline;fill:none;fill-opacity:1"/>
<circle style="font-variation-settings:normal;opacity:1;vector-effect:none;fill:none;fill-opacity:1;fill-rule:evenodd;stroke:#ef8bc5;stroke-width:1;stroke-linecap:round;stroke-linejoin:round;stroke-miterlimit:4;stroke-dasharray:none;stroke-dashoffset:0;stroke-opacity:1;-inkscape-stroke:none;stop-color:#ef8bc5;stop-opacity:1" id="path3719" cx="24" cy="24" r="14"/>
<path style="font-variation-settings:normal;opacity:1;vector-effect:none;fill:none;fill-opacity:1;stroke:#ef8bc5;stroke-width:1;stroke-linecap:round;stroke-linejoin:round;stroke-miterlimit:4;stroke-dasharray:none;stroke-dashoffset:0;stroke-opacity:1;-inkscape-stroke:none;stop-color:#ef8bc5;stop-opacity:1" d="m 17.691755,25.782634 v 4.439842 h 12.846243 v -4.439844 z" id="path3721"/>
<path style="font-variation-settings:normal;opacity:1;vector-effect:none;fill:none;fill-opacity:1;stroke:#ef8bc5;stroke-width:1;stroke-linecap:round;stroke-linejoin:round;stroke-miterlimit:4;stroke-dasharray:none;stroke-dashoffset:0;stroke-opacity:1;-inkscape-stroke:none;stop-color:#ef8bc5;stop-opacity:1" d="m 17.691755,20.103243 v 5.679391 l 3.222829,-4.056708 3.200292,4.056707 3.087606,-4.101781 3.335516,4.10178 v -5.792076 l -3.132684,-3.763723 -3.155218,3.786261 -3.358053,-3.808799 z" id="path3723"/>
</g>
</svg>